{"title":"Easy A 2010 BRRip 720p H264 Feel-Free","uid":5975787,"size":1432097364,"categoryP":"video","categoryS":"hd___movies","magnet":"?xt=urn:btih:570a8603c1fc79c24d64ca973fd636260d435e69&amp;dn=Easy+A+2010+BRRip+720p+H264+Feel-Free&amp;tr=udp%3A%2F%2Ftracker.openbittorrent.com%3A80&amp;tr=udp%3A%2F%2Fopen.demonii.com%3A1337&amp;tr=udp%3A%2F%2Ftracker.coppersurfer.tk%3A6969&amp;tr=udp%3A%2F%2Fexodus.desync.com%3A6969","seeders":0,"leechers":0,"uploader":"hiest","files":10,"time":1290440326,"description":"Genre:Comedy | Romance \nLanguage:English\nIMDb:http://www.imdb.com/title/tt1282140/\nSource:720p.BluRay.x264-METiS\n\n\nGeneral\nComplete name :Easy A 2010 BRRip 720p H264 Feel-Free\nFormat : MPEG-4\nFormat profile : Base Media / Version 2\nCodec ID : mp42\nFile size : 1.33 GiB\nDuration : 1h 32mn\nOverall bit rate : 2 056 Kbps\nVideo #1\nCodec ID : avc1\nCodec ID/Info : Advanced Video Coding\nDuration : 1h 32mn\nBit rate mode : Variable\nBit rate : 1 506 Kbps\nWidth : 1 280 pixels\nHeight : 688 pixels\nDisplay aspect ratio : 1.860\nFrame rate mode : Constant\nFrame rate : 23.976 fps\nResolution : 24 bits\nColorimetry : 4:2:0\nScan type : Progressive\nBits/(Pixel*Frame) : 0.071\nStream size : 996 MiB (73%)\nAudio #2\nID : 2\nFormat : AAC\nFormat/Info : Advanced Audio Codec\nFormat version : Version 4\nFormat profile : LC\nFormat settings, SBR : No\nCodec ID : 40\nDuration : 1h 32mn\nBit rate mode : Constant\nBit rate : 546 Kbps\nNominal bit rate : 576 Kbps\nChannel(s) : 6 channels\nChannel positions : Front: L C R, Rear: L R, LFE\nSampling rate : 48.0 KHz\nResolution : 16 bits\nStream size : 361 MiB (27%)\n\nPlot:\nA clean-cut high school student relies on the school's rumor mill to advance her social and financial standing.\n\n\n\n\n\n================================== &lt;a href=&quot;\nhttp://thepiratebay.se/user/hiest&quot; rel=&quot;nofollow&quot; target=&quot;_NEW&quot;&gt;\nhttp://thepiratebay.se/user/hiest&lt;/a&gt;\n==================================","torrent":{"xt":"urn:btih:570a8603c1fc79c24d64ca973fd636260d435e69","amp;dn":"Easy+A+2010+BRRip+720p+H264+Feel-Free","amp;tr":["udp%3A%2F%2Ftracker.openbittorrent.com%3A80","udp%3A%2F%2Fopen.demonii.com%3A1337","udp%3A%2F%2Ftracker.coppersurfer.tk%3A6969","udp%3A%2F%2Fexodus.desync.com%3A6969"],"infoHash":"570a8603c1fc79c24d64ca973fd636260d435e69","infoHashBuffer":{"type":"Buffer","data":[87,10,134,3,193,252,121,194,77,100,202,151,63,214,54,38,13,67,94,105]},"announce":[],"urlList":[]}}